ffmpeg started on 2025-06-05 at 19:36:59
Report written to "D:\Convert\FFMetrics\reports\psnr_report-6.txt"
Log level: 32
Command line:
ffmpeg -hide_banner -nostdin -i "G:\\\xc0\xed\xe8\xec\xe5\\\xce\xed\xe3\xee\xe8\xed\xe3\xe8\\!_36_\xce\xf1\xe5\xed\xfc_2024\\DreamCast\\\xcd\xe0\xef\xe0\xe4\xe5\xed\xe8\xe5 \xee\xe4\xe8\xed\xee\xf7\xea\xe8 \xed\xe0 \xe8\xed\xee\xe9 \xec\xe8\xf0\\[DC] Hitoribocchi no Isekai Kouryaku - 04_Telegram_HEVC.mkv" -i "G:\\\xc0\xed\xe8\xec\xe5\\\xce\xed\xe3\xee\xe8\xed\xe3\xe8\\!_36_\xce\xf1\xe5\xed\xfc_2024\\DreamCast\\\xcd\xe0\xef\xe0\xe4\xe5\xed\xe8\xe5 \xee\xe4\xe8\xed\xee\xf7\xea\xe8 \xed\xe0 \xe8\xed\xee\xe9 \xec\xe8\xf0\\[DC] Hitoribocchi no Isekai Kouryaku - 04_Telegram.mp4" -lavfi "[0:v]settb=AVTB,setpts=PTS-STARTPTS,format=pix_fmts=yuv420p10,fps=24000/1001,scale=1920:1080:flags=bicubic[main];[1:v]settb=AVTB,setpts=PTS-STARTPTS,format=pix_fmts=yuv420p,fps=24000/1001,scale=1920:1080:flags=bicubic[ref];[main][ref]psnr=eof_action=endall:stats_file='D\\:/Convert/FFMetrics/logs/psnr_logfile-6.txt'" -f null -
Input #0, matroska,webm, from 'G:\Аниме\Онгоинги\!_36_Осень_2024\DreamCast\Нападение одиночки на иной мир\[DC] Hitoribocchi no Isekai Kouryaku - 04_Telegram_HEVC.mkv':
  Metadata:
    COMPATIBLE_BRANDS: isomiso2avc1mp41
    MAJOR_BRAND     : isom
    MINOR_VERSION   : 512
    ENCODER         : Lavf61.7.100
  Duration: 00:23:49.08, start: -0.021000, bitrate: 1496 kb/s
  Stream #0:0: Video: hevc (Main 10), yuv420p10le(tv, bt709, progressive), 1920x1080 [SAR 1:1 DAR 16:9], 23.98 fps, 23.98 tbr, 1k tbn (default)
      Metadata:
        HANDLER_NAME    : VideoHandler
        VENDOR_ID       : [0][0][0][0]
        ENCODER         : Lavc61.19.100 libx265
        BPS             : 1298415
        DURATION        : 00:23:48.969708333
        NUMBER_OF_FRAMES: 34261
        NUMBER_OF_BYTES : 231924480
        _STATISTICS_WRITING_APP: mkvpropedit v66.0.0 ('Josie') 64-bit
        _STATISTICS_WRITING_DATE_UTC: 2025-05-31 10:06:59
        _STATISTICS_TAGS: BPS DURATION NUMBER_OF_FRAMES NUMBER_OF_BYTES
  Stream #0:1: Audio: aac (LC), 48000 Hz, stereo, fltp (default)
      Metadata:
        HANDLER_NAME    : SoundHandler
        VENDOR_ID       : [0][0][0][0]
        ENCODER         : Lavc61.19.100 aac
        BPS             : 194316
        DURATION        : 00:23:49.077000000
        NUMBER_OF_FRAMES: 66989
        NUMBER_OF_BYTES : 34711685
        _STATISTICS_WRITING_APP: mkvpropedit v66.0.0 ('Josie') 64-bit
        _STATISTICS_WRITING_DATE_UTC: 2025-05-31 10:06:59
        _STATISTICS_TAGS: BPS DURATION NUMBER_OF_FRAMES NUMBER_OF_BYTES
Input #1, mov,mp4,m4a,3gp,3g2,mj2, from 'G:\Аниме\Онгоинги\!_36_Осень_2024\DreamCast\Нападение одиночки на иной мир\[DC] Hitoribocchi no Isekai Kouryaku - 04_Telegram.mp4':
  Metadata:
    major_brand     : isom
    minor_version   : 512
    compatible_brands: isomiso2avc1mp41
    encoder         : Lavf60.16.100
  Duration: 00:23:49.03, start: 0.000000, bitrate: 3749 kb/s
  Stream #1:0[0x1](und): Video: h264 (High) (avc1 / 0x31637661), yuv420p(tv, bt709, progressive), 1920x1080 [SAR 1:1 DAR 16:9], 3601 kb/s, 23.98 fps, 23.98 tbr, 24k tbn (default)
      Metadata:
        handler_name    : VideoHandler
        vendor_id       : [0][0][0][0]
        encoder         : Lavc60.31.102 h264_qsv
  Stream #1:1[0x2](und): Audio: aac (HE-AACv2) (mp4a / 0x6134706D), 48000 Hz, stereo, fltp, 144 kb/s (default)
      Metadata:
        handler_name    : SoundHandler
        vendor_id       : [0][0][0][0]
Stream mapping:
  Stream #0:0 (hevc) -> settb:default
  Stream #1:0 (h264) -> settb:default
  psnr:default -> Stream #0:0 (wrapped_avframe)
  Stream #0:1 -> #0:1 (aac (native) -> pcm_s16le (native))
Output #0, null, to 'pipe:':
  Metadata:
    COMPATIBLE_BRANDS: isomiso2avc1mp41
    MAJOR_BRAND     : isom
    MINOR_VERSION   : 512
    encoder         : Lavf61.7.100
  Stream #0:0: Video: wrapped_avframe, yuv420p10le(tv, bt709, progressive), 1920x1080 [SAR 1:1 DAR 16:9], q=2-31, 200 kb/s, 23.98 fps, 23.98 tbn
      Metadata:
        encoder         : Lavc61.19.100 wrapped_avframe
  Stream #0:1: Audio: pcm_s16le, 48000 Hz, stereo, s16, 1536 kb/s (default)
      Metadata:
        HANDLER_NAME    : SoundHandler
        VENDOR_ID       : [0][0][0][0]
        _STATISTICS_TAGS: BPS DURATION NUMBER_OF_FRAMES NUMBER_OF_BYTES
        BPS             : 194316
        DURATION        : 00:23:49.077000000
        NUMBER_OF_FRAMES: 66989
        NUMBER_OF_BYTES : 34711685
        _STATISTICS_WRITING_APP: mkvpropedit v66.0.0 ('Josie') 64-bit
        _STATISTICS_WRITING_DATE_UTC: 2025-05-31 10:06:59
        encoder         : Lavc61.19.100 pcm_s16le
frame=  165 fps=0.0 q=-0.0 size=N/A time=00:00:06.88 bitrate=N/A speed=13.7x    frame=  351 fps=341 q=-0.0 size=N/A time=00:00:14.63 bitrate=N/A speed=14.2x    frame=  556 fps=360 q=-0.0 size=N/A time=00:00:23.18 bitrate=N/A speed=  15x    frame=  744 fps=362 q=-0.0 size=N/A time=00:00:31.03 bitrate=N/A speed=15.1x    frame=  971 fps=377 q=-0.0 size=N/A time=00:00:40.49 bitrate=N/A speed=15.7x    frame= 1159 fps=375 q=-0.0 size=N/A time=00:00:48.33 bitrate=N/A speed=15.6x    frame= 1340 fps=372 q=-0.0 size=N/A time=00:00:55.88 bitrate=N/A speed=15.5x    frame= 1498 fps=363 q=-0.0 size=N/A time=00:01:02.47 bitrate=N/A speed=15.2x    frame= 1674 fps=361 q=-0.0 size=N/A time=00:01:09.81 bitrate=N/A speed=15.1x    frame= 1862 fps=362 q=-0.0 size=N/A time=00:01:17.66 bitrate=N/A speed=15.1x    frame= 2017 fps=356 q=-0.0 size=N/A time=00:01:24.12 bitrate=N/A speed=14.8x    frame= 2145 fps=347 q=-0.0 size=N/A time=00:01:29.46 bitrate=N/A speed=14.5x    frame= 2291 fps=342 q=-0.0 size=N/A time=00:01:35.55 bitrate=N/A speed=14.3x    frame= 2468 fps=342 q=-0.0 size=N/A time=00:01:42.93 bitrate=N/A speed=14.3x    frame= 2654 fps=343 q=-0.0 size=N/A time=00:01:50.69 bitrate=N/A speed=14.3x    frame= 2882 fps=349 q=-0.0 size=N/A time=00:02:00.20 bitrate=N/A speed=14.6x    frame= 3076 fps=351 q=-0.0 size=N/A time=00:02:08.29 bitrate=N/A speed=14.6x    frame= 3308 fps=356 q=-0.0 size=N/A time=00:02:17.97 bitrate=N/A speed=14.9x    frame= 3471 fps=354 q=-0.0 size=N/A time=00:02:24.76 bitrate=N/A speed=14.8x    frame= 3671 fps=356 q=-0.0 size=N/A time=00:02:33.11 bitrate=N/A speed=14.8x    frame= 3927 fps=362 q=-0.0 size=N/A time=00:02:43.78 bitrate=N/A speed=15.1x    frame= 4183 fps=369 q=-0.0 size=N/A time=00:02:54.46 bitrate=N/A speed=15.4x    frame= 4431 fps=373 q=-0.0 size=N/A time=00:03:04.80 bitrate=N/A speed=15.6x    frame= 4637 fps=375 q=-0.0 size=N/A time=00:03:13.40 bitrate=N/A speed=15.6x    frame= 4826 fps=374 q=-0.0 size=N/A time=00:03:21.28 bitrate=N/A speed=15.6x    frame= 5024 fps=374 q=-0.0 size=N/A time=00:03:29.54 bitrate=N/A speed=15.6x    frame= 5248 fps=377 q=-0.0 size=N/A time=00:03:38.88 bitrate=N/A speed=15.7x    frame= 5482 fps=380 q=-0.0 size=N/A time=00:03:48.64 bitrate=N/A speed=15.8x    frame= 5699 fps=381 q=-0.0 size=N/A time=00:03:57.69 bitrate=N/A speed=15.9x    frame= 5892 fps=381 q=-0.0 size=N/A time=00:04:05.74 bitrate=N/A speed=15.9x    frame= 6135 fps=383 q=-0.0 size=N/A time=00:04:15.88 bitrate=N/A speed=  16x    frame= 6360 fps=385 q=-0.0 size=N/A time=00:04:25.26 bitrate=N/A speed=16.1x    frame= 6616 fps=388 q=-0.0 size=N/A time=00:04:35.94 bitrate=N/A speed=16.2x    frame= 6876 fps=392 q=-0.0 size=N/A time=00:04:46.78 bitrate=N/A speed=16.3x    frame= 7133 fps=395 q=-0.0 size=N/A time=00:04:57.50 bitrate=N/A speed=16.5x    frame= 7374 fps=397 q=-0.0 size=N/A time=00:05:07.55 bitrate=N/A speed=16.5x    frame= 7629 fps=399 q=-0.0 size=N/A time=00:05:18.19 bitrate=N/A speed=16.7x    frame= 7874 fps=402 q=-0.0 size=N/A time=00:05:28.41 bitrate=N/A speed=16.7x    frame= 8141 fps=404 q=-0.0 size=N/A time=00:05:39.54 bitrate=N/A speed=16.9x    frame= 8410 fps=407 q=-0.0 size=N/A time=00:05:50.76 bitrate=N/A speed=  17x    frame= 8668 fps=410 q=-0.0 size=N/A time=00:06:01.52 bitrate=N/A speed=17.1x    frame= 8918 fps=411 q=-0.0 size=N/A time=00:06:11.95 bitrate=N/A speed=17.2x    frame= 9171 fps=413 q=-0.0 size=N/A time=00:06:22.50 bitrate=N/A speed=17.2x    frame= 9435 fps=415 q=-0.0 size=N/A time=00:06:33.51 bitrate=N/A speed=17.3x    frame= 9692 fps=417 q=-0.0 size=N/A time=00:06:44.23 bitrate=N/A speed=17.4x    frame= 9946 fps=419 q=-0.0 size=N/A time=00:06:54.83 bitrate=N/A speed=17.5x    frame=10216 fps=421 q=-0.0 size=N/A time=00:07:06.09 bitrate=N/A speed=17.6x    frame=10488 fps=423 q=-0.0 size=N/A time=00:07:17.43 bitrate=N/A speed=17.6x    frame=10750 fps=425 q=-0.0 size=N/A time=00:07:28.36 bitrate=N/A speed=17.7x    frame=11018 fps=427 q=-0.0 size=N/A time=00:07:39.54 bitrate=N/A speed=17.8x    frame=11289 fps=429 q=-0.0 size=N/A time=00:07:50.84 bitrate=N/A speed=17.9x    frame=11520 fps=429 q=-0.0 size=N/A time=00:08:00.48 bitrate=N/A speed=17.9x    frame=11717 fps=428 q=-0.0 size=N/A time=00:08:08.69 bitrate=N/A speed=17.9x    frame=11952 fps=429 q=-0.0 size=N/A time=00:08:18.49 bitrate=N/A speed=17.9x    frame=12172 fps=429 q=-0.0 size=N/A time=00:08:27.67 bitrate=N/A speed=17.9x    frame=12390 fps=429 q=-0.0 size=N/A time=00:08:36.76 bitrate=N/A speed=17.9x    frame=12647 fps=430 q=-0.0 size=N/A time=00:08:47.48 bitrate=N/A speed=17.9x    frame=12880 fps=430 q=-0.0 size=N/A time=00:08:57.20 bitrate=N/A speed=17.9x    frame=13120 fps=431 q=-0.0 size=N/A time=00:09:07.21 bitrate=N/A speed=  18x    frame=13385 fps=432 q=-0.0 size=N/A time=00:09:18.26 bitrate=N/A speed=  18x    frame=13636 fps=433 q=-0.0 size=N/A time=00:09:28.73 bitrate=N/A speed=18.1x    frame=13869 fps=433 q=-0.0 size=N/A time=00:09:38.45 bitrate=N/A speed=18.1x    frame=14119 fps=434 q=-0.0 size=N/A time=00:09:48.87 bitrate=N/A speed=18.1x    frame=14373 fps=435 q=-0.0 size=N/A time=00:09:59.47 bitrate=N/A speed=18.1x    frame=14637 fps=436 q=-0.0 size=N/A time=00:10:10.48 bitrate=N/A speed=18.2x    frame=14886 fps=437 q=-0.0 size=N/A time=00:10:20.87 bitrate=N/A speed=18.2x    frame=15102 fps=437 q=-0.0 size=N/A time=00:10:29.87 bitrate=N/A speed=18.2x    frame=15304 fps=436 q=-0.0 size=N/A time=00:10:38.30 bitrate=N/A speed=18.2x    frame=15511 fps=435 q=-0.0 size=N/A time=00:10:46.93 bitrate=N/A speed=18.2x    frame=15741 fps=436 q=-0.0 size=N/A time=00:10:56.53 bitrate=N/A speed=18.2x    frame=15968 fps=436 q=-0.0 size=N/A time=00:11:05.99 bitrate=N/A speed=18.2x    frame=16189 fps=436 q=-0.0 size=N/A time=00:11:15.21 bitrate=N/A speed=18.2x    frame=16392 fps=435 q=-0.0 size=N/A time=00:11:23.68 bitrate=N/A speed=18.1x    frame=16642 fps=436 q=-0.0 size=N/A time=00:11:34.11 bitrate=N/A speed=18.2x    frame=16881 fps=436 q=-0.0 size=N/A time=00:11:44.07 bitrate=N/A speed=18.2x    frame=17056 fps=435 q=-0.0 size=N/A time=00:11:51.37 bitrate=N/A speed=18.1x    frame=17228 fps=434 q=-0.0 size=N/A time=00:11:58.55 bitrate=N/A speed=18.1x    frame=17425 fps=433 q=-0.0 size=N/A time=00:12:06.76 bitrate=N/A speed=18.1x    frame=17593 fps=431 q=-0.0 size=N/A time=00:12:13.77 bitrate=N/A speed=  18x    frame=17787 fps=431 q=-0.0 size=N/A time=00:12:21.86 bitrate=N/A speed=  18x    frame=17970 fps=430 q=-0.0 size=N/A time=00:12:29.49 bitrate=N/A speed=17.9x    frame=18187 fps=430 q=-0.0 size=N/A time=00:12:38.54 bitrate=N/A speed=17.9x    frame=18310 fps=427 q=-0.0 size=N/A time=00:12:43.67 bitrate=N/A speed=17.8x    frame=18522 fps=427 q=-0.0 size=N/A time=00:12:52.52 bitrate=N/A speed=17.8x    frame=18770 fps=428 q=-0.0 size=N/A time=00:13:02.86 bitrate=N/A speed=17.8x    frame=19028 fps=429 q=-0.0 size=N/A time=00:13:13.62 bitrate=N/A speed=17.9x    frame=19308 fps=430 q=-0.0 size=N/A time=00:13:25.30 bitrate=N/A speed=17.9x    frame=19550 fps=430 q=-0.0 size=N/A time=00:13:35.39 bitrate=N/A speed=  18x    frame=19771 fps=430 q=-0.0 size=N/A time=00:13:44.61 bitrate=N/A speed=  18x    frame=19989 fps=430 q=-0.0 size=N/A time=00:13:53.70 bitrate=N/A speed=17.9x    frame=20180 fps=430 q=-0.0 size=N/A time=00:14:01.67 bitrate=N/A speed=17.9x    frame=20384 fps=429 q=-0.0 size=N/A time=00:14:10.18 bitrate=N/A speed=17.9x    frame=20567 fps=429 q=-0.0 size=N/A time=00:14:17.81 bitrate=N/A speed=17.9x    frame=20802 fps=429 q=-0.0 size=N/A time=00:14:27.61 bitrate=N/A speed=17.9x    frame=21021 fps=429 q=-0.0 size=N/A time=00:14:36.75 bitrate=N/A speed=17.9x    frame=21247 fps=429 q=-0.0 size=N/A time=00:14:46.17 bitrate=N/A speed=17.9x    frame=21492 fps=429 q=-0.0 size=N/A time=00:14:56.39 bitrate=N/A speed=17.9x    frame=21698 fps=429 q=-0.0 size=N/A time=00:15:04.98 bitrate=N/A speed=17.9x    frame=21960 fps=430 q=-0.0 size=N/A time=00:15:15.91 bitrate=N/A speed=17.9x    frame=22155 fps=429 q=-0.0 size=N/A time=00:15:24.04 bitrate=N/A speed=17.9x    frame=22368 fps=429 q=-0.0 size=N/A time=00:15:32.93 bitrate=N/A speed=17.9x    frame=22640 fps=430 q=-0.0 size=N/A time=00:15:44.27 bitrate=N/A speed=17.9x    frame=22857 fps=430 q=-0.0 size=N/A time=00:15:53.32 bitrate=N/A speed=17.9x    frame=23096 fps=430 q=-0.0 size=N/A time=00:16:03.29 bitrate=N/A speed=17.9x    frame=23305 fps=430 q=-0.0 size=N/A time=00:16:12.01 bitrate=N/A speed=17.9x    frame=23590 fps=431 q=-0.0 size=N/A time=00:16:23.89 bitrate=N/A speed=  18x    frame=23843 fps=432 q=-0.0 size=N/A time=00:16:34.45 bitrate=N/A speed=  18x    frame=24072 fps=432 q=-0.0 size=N/A time=00:16:44.00 bitrate=N/A speed=  18x    frame=24265 fps=431 q=-0.0 size=N/A time=00:16:52.05 bitrate=N/A speed=  18x    frame=24470 fps=431 q=-0.0 size=N/A time=00:17:00.60 bitrate=N/A speed=  18x    frame=24674 fps=431 q=-0.0 size=N/A time=00:17:09.11 bitrate=N/A speed=  18x    frame=24871 fps=430 q=-0.0 size=N/A time=00:17:17.32 bitrate=N/A speed=17.9x    frame=25024 fps=429 q=-0.0 size=N/A time=00:17:23.70 bitrate=N/A speed=17.9x    frame=25239 fps=429 q=-0.0 size=N/A time=00:17:32.67 bitrate=N/A speed=17.9x    frame=25413 fps=428 q=-0.0 size=N/A time=00:17:39.93 bitrate=N/A speed=17.9x    frame=25570 fps=427 q=-0.0 size=N/A time=00:17:46.48 bitrate=N/A speed=17.8x    frame=25758 fps=427 q=-0.0 size=N/A time=00:17:54.32 bitrate=N/A speed=17.8x    frame=25953 fps=426 q=-0.0 size=N/A time=00:18:02.45 bitrate=N/A speed=17.8x    frame=26157 fps=426 q=-0.0 size=N/A time=00:18:10.96 bitrate=N/A speed=17.8x    frame=26363 fps=426 q=-0.0 size=N/A time=00:18:19.55 bitrate=N/A speed=17.8x    frame=26590 fps=426 q=-0.0 size=N/A time=00:18:29.02 bitrate=N/A speed=17.8x    frame=26850 fps=426 q=-0.0 size=N/A time=00:18:39.86 bitrate=N/A speed=17.8x    frame=27099 fps=427 q=-0.0 size=N/A time=00:18:50.25 bitrate=N/A speed=17.8x    frame=27355 fps=427 q=-0.0 size=N/A time=00:19:00.93 bitrate=N/A speed=17.8x    frame=27585 fps=427 q=-0.0 size=N/A time=00:19:10.52 bitrate=N/A speed=17.8x    frame=27826 fps=428 q=-0.0 size=N/A time=00:19:20.57 bitrate=N/A speed=17.8x    frame=28073 fps=428 q=-0.0 size=N/A time=00:19:30.87 bitrate=N/A speed=17.9x    frame=28295 fps=428 q=-0.0 size=N/A time=00:19:40.13 bitrate=N/A speed=17.9x    frame=28529 fps=428 q=-0.0 size=N/A time=00:19:49.89 bitrate=N/A speed=17.9x    frame=28775 fps=429 q=-0.0 size=N/A time=00:20:00.15 bitrate=N/A speed=17.9x    frame=28984 fps=429 q=-0.0 size=N/A time=00:20:08.87 bitrate=N/A speed=17.9x    frame=29196 fps=428 q=-0.0 size=N/A time=00:20:17.71 bitrate=N/A speed=17.9x    frame=29431 fps=429 q=-0.0 size=N/A time=00:20:27.51 bitrate=N/A speed=17.9x    frame=29629 fps=428 q=-0.0 size=N/A time=00:20:35.77 bitrate=N/A speed=17.9x    frame=29807 fps=428 q=-0.0 size=N/A time=00:20:43.20 bitrate=N/A speed=17.8x    frame=29988 fps=427 q=-0.0 size=N/A time=00:20:50.74 bitrate=N/A speed=17.8x    frame=30187 fps=427 q=-0.0 size=N/A time=00:20:59.04 bitrate=N/A speed=17.8x    frame=30416 fps=427 q=-0.0 size=N/A time=00:21:08.60 bitrate=N/A speed=17.8x    frame=30606 fps=427 q=-0.0 size=N/A time=00:21:16.52 bitrate=N/A speed=17.8x    frame=30788 fps=426 q=-0.0 size=N/A time=00:21:24.11 bitrate=N/A speed=17.8x    frame=31020 fps=426 q=-0.0 size=N/A time=00:21:33.79 bitrate=N/A speed=17.8x    frame=31283 fps=427 q=-0.0 size=N/A time=00:21:44.76 bitrate=N/A speed=17.8x    frame=31547 fps=427 q=-0.0 size=N/A time=00:21:55.77 bitrate=N/A speed=17.8x    frame=31812 fps=428 q=-0.0 size=N/A time=00:22:06.82 bitrate=N/A speed=17.8x    frame=32045 fps=428 q=-0.0 size=N/A time=00:22:16.54 bitrate=N/A speed=17.9x    frame=32230 fps=428 q=-0.0 size=N/A time=00:22:24.25 bitrate=N/A speed=17.8x    frame=32444 fps=428 q=-0.0 size=N/A time=00:22:33.18 bitrate=N/A speed=17.8x    frame=32661 fps=427 q=-0.0 size=N/A time=00:22:42.23 bitrate=N/A speed=17.8x    frame=32867 fps=427 q=-0.0 size=N/A time=00:22:50.82 bitrate=N/A speed=17.8x    frame=33062 fps=427 q=-0.0 size=N/A time=00:22:58.96 bitrate=N/A speed=17.8x    frame=33228 fps=426 q=-0.0 size=N/A time=00:23:05.88 bitrate=N/A speed=17.8x    frame=33392 fps=426 q=-0.0 size=N/A time=00:23:12.72 bitrate=N/A speed=17.7x    frame=33631 fps=426 q=-0.0 size=N/A time=00:23:22.69 bitrate=N/A speed=17.8x    frame=33880 fps=426 q=-0.0 size=N/A time=00:23:33.07 bitrate=N/A speed=17.8x    frame=34114 fps=426 q=-0.0 size=N/A time=00:23:42.83 bitrate=N/A speed=17.8x    [Parsed_psnr_10 @ 000002491b32a100] PSNR y:47.369341 u:49.592436 v:48.995629 average:47.918744 min:39.981825 max:inf
[out#0/null @ 000002491b294bc0] video:14722KiB audio:267956KiB subtitle:0KiB other streams:0KiB global headers:0KiB muxing overhead: unknown
frame=34261 fps=427 q=-0.0 Lsize=N/A time=00:23:48.96 bitrate=N/A speed=17.8x    
